<mxfile host="app.diagrams.net">
  <diagram name="SwiftUI Architecture" id="1">
    <mxGraphModel dx="1000" dy="1000" grid="1" gridSize="10" guides="1" tooltips="1" connect="1" arrows="1" fold="1" page="1" pageScale="1" pageWidth="827" pageHeight="1169" math="0" shadow="0">
      <root>
        <mxCell id="0"/>
        <mxCell id="1" parent="0"/>

        <mxCell id="app" value="App Entry Point
(App.swift)" style="shape=ellipse;whiteSpace=wrap;html=1;fillColor=#dae8fc;strokeColor=#6c8ebf;" vertex="1" parent="1">
          <mxGeometry x="320" y="20" width="180" height="80" as="geometry"/>
        </mxCell>

        <mxCell id="view" value="View
(SwiftUI Views)" style="shape=rectangle;whiteSpace=wrap;html=1;fillColor=#fff2cc;strokeColor=#d6b656;" vertex="1" parent="1">
          <mxGeometry x="100" y="140" width="160" height="80" as="geometry"/>
        </mxCell>

        <mxCell id="viewModel" value="ViewModel
(ObservableObject)" style="shape=rectangle;whiteSpace=wrap;html=1;fillColor=#e1d5e7;strokeColor=#9673a6;" vertex="1" parent="1">
          <mxGeometry x="300" y="140" width="180" height="80" as="geometry"/>
        </mxCell>

        <mxCell id="uiComponent" value="UIComponent
(Custom SwiftUI Views)" style="shape=rectangle;whiteSpace=wrap;html=1;fillColor=#d5e8d4;strokeColor=#82b366;" vertex="1" parent="1">
          <mxGeometry x="520" y="140" width="180" height="80" as="geometry"/>
        </mxCell>

        <mxCell id="model" value="Model
(Structs/Data Types)" style="shape=rectangle;whiteSpace=wrap;html=1;fillColor=#f8cecc;strokeColor=#b85450;" vertex="1" parent="1">
          <mxGeometry x="200" y="260" width="160" height="80" as="geometry"/>
        </mxCell>

        <mxCell id="service" value="ServiceClass
(API/Networking)" style="shape=rectangle;whiteSpace=wrap;html=1;fillColor=#d0e0e3;strokeColor=#6c8ebf;" vertex="1" parent="1">
          <mxGeometry x="400" y="260" width="160" height="80" as="geometry"/>
        </mxCell>

        <mxCell id="helper" value="Helper
(Common Methods)" style="shape=rectangle;whiteSpace=wrap;html=1;fillColor=#f5f5f5;strokeColor=#999999;" vertex="1" parent="1">
          <mxGeometry x="320" y="380" width="160" height="80" as="geometry"/>
        </mxCell>

        <!-- Arrows / connections -->
        <mxCell id="e1" style="endArrow=block;html=1;" edge="1" parent="1" source="app" target="view"/>
        <mxCell id="e2" style="endArrow=block;html=1;" edge="1" parent="1" source="view" target="viewModel"/>
        <mxCell id="e3" style="endArrow=block;html=1;" edge="1" parent="1" source="viewModel" target="model"/>
        <mxCell id="e4" style="endArrow=block;html=1;" edge="1" parent="1" source="viewModel" target="service"/>
        <mxCell id="e5" style="endArrow=block;html=1;" edge="1" parent="1" source="view" target="uiComponent"/>
        <mxCell id="e6" style="endArrow=block;html=1;" edge="1" parent="1" source="service" target="helper"/>

      </root>
    </mxGraphModel>
  </diagram>
</mxfile>